<svg width="20" height="18" viewBox="0 0 20 18" fill="none" xmlns="http://www.w3.org/2000/svg">
<g clip-path="url(#clip0_739_145)">
<path d="M17.04 9.99028L16.3 9.39987C15.7931 8.99544 15.794 8.24375 16.3 7.84013L17.04 7.24972C17.5665 6.82953 17.7012 6.10902 17.3602 5.53643L15.8991 3.08357C15.558 2.51101 14.8467 2.26386 14.2082 2.49573L13.3106 2.82164C12.6959 3.04481 12.0247 2.6684 11.917 2.04176L11.7594 1.12542C11.6473 0.473326 11.0708 0 10.3887 0H7.46655C6.78443 0 6.20794 0.473326 6.09584 1.12545L5.93826 2.04176C5.83032 2.66951 5.15823 3.04444 4.54461 2.82167L3.6471 2.49573C3.00847 2.26386 2.29726 2.51105 1.95615 3.08357L0.495075 5.5364C0.15403 6.10892 0.288683 6.82946 0.815311 7.24969L1.55525 7.84009C2.06218 8.24456 2.06117 8.99618 1.55525 9.39984L0.815277 9.99024C0.288683 10.4105 0.153995 11.131 0.49504 11.7035L1.95615 14.1564C2.29723 14.7289 3.00829 14.9761 3.6471 14.7442L4.54458 14.4183C5.15945 14.1951 5.83049 14.5717 5.93822 15.1982L6.0958 16.1145C6.20794 16.7667 6.78443 17.24 7.46652 17.24H10.3887C11.0708 17.24 11.6473 16.7667 11.7594 16.1146L11.9169 15.1983C12.0248 14.5707 12.6969 14.1955 13.3106 14.4184L14.2082 14.7443C14.8469 14.9762 15.558 14.729 15.8991 14.1564L17.3602 11.7035C17.7012 11.131 17.5665 10.4105 17.04 9.99028ZM14.6957 13.483L13.7981 13.1571C12.3634 12.6361 10.7976 13.515 10.5463 14.9768L10.3887 15.8931H7.46655L7.30897 14.9768C7.05714 13.5122 5.48906 12.6372 4.0571 13.1571L3.15959 13.483L1.69851 11.0301L2.43845 10.4397C3.62132 9.49591 3.61885 7.74214 2.43845 6.80027L1.69851 6.20987L3.15962 3.75701L4.0571 4.08292C5.49188 4.60382 7.05762 3.72498 7.30897 2.26319L7.46652 1.34687H10.3887L10.5462 2.26319C10.7981 3.72798 12.3663 4.60274 13.7981 4.08292L14.6956 3.75701L16.157 6.20953C16.157 6.20953 16.1569 6.20963 16.1567 6.20983L15.4168 6.80024C14.2339 7.74399 14.2363 9.49779 15.4167 10.4397L16.1567 11.0301L14.6957 13.483ZM8.92762 5.2977C7.03758 5.2977 5.4999 6.78808 5.4999 8.62C5.4999 10.4519 7.03758 11.9423 8.92762 11.9423C10.8177 11.9423 12.3553 10.4519 12.3553 8.62C12.3553 6.78808 10.8177 5.2977 8.92762 5.2977ZM8.92762 10.5954C7.80381 10.5954 6.88951 9.70925 6.88951 8.62C6.88951 7.53075 7.80381 6.64457 8.92762 6.64457C10.0514 6.64457 10.9657 7.53075 10.9657 8.62C10.9657 9.70925 10.0514 10.5954 8.92762 10.5954Z" fill="white"/>
</g>
<defs>
<clipPath id="clip0_739_145">
<rect width="20" height="17.24" fill="white"/>
</clipPath>
</defs>
</svg>
