<svg width="20" height="20" viewBox="0 0 20 20" fill="none" xmlns="http://www.w3.org/2000/svg">
<g clip-path="url(#clip0_739_125)">
<path d="M9.9668 18.0345H2.49168C2.0332 18.0345 1.66113 17.6679 1.66113 17.2162V2.48752C1.66113 2.03583 2.03324 1.66928 2.49168 1.66928H9.9668C10.4261 1.66928 10.7973 1.30353 10.7973 0.851034C10.7973 0.398542 10.4261 0.0327148 9.9668 0.0327148H2.49168C1.11793 0.0327148 0 1.13412 0 2.48752V17.2162C0 18.5696 1.11793 19.671 2.49168 19.671H9.9668C10.4261 19.671 10.7973 19.3052 10.7973 18.8527C10.7973 18.4002 10.4261 18.0345 9.9668 18.0345Z" fill="white"/>
<path d="M19.7525 9.26923L14.7027 4.35966C14.3771 4.04217 13.8505 4.04628 13.5282 4.36785C13.206 4.68942 13.2093 5.20738 13.5366 5.52487L17.1453 9.03355H7.47508C7.01578 9.03355 6.64453 9.3993 6.64453 9.85179C6.64453 10.3043 7.01578 10.6701 7.47508 10.6701H17.1453L13.5366 14.1788C13.2093 14.4962 13.2068 15.0142 13.5282 15.3358C13.691 15.4978 13.9053 15.5796 14.1196 15.5796C14.3306 15.5796 14.5415 15.5011 14.7027 15.3439L19.7525 10.4344C19.9103 10.2805 20 10.071 20 9.85176C20 9.63255 19.9111 9.42389 19.7525 9.26923Z" fill="white"/>
</g>
<defs>
<clipPath id="clip0_739_125">
<rect width="20" height="19.7037" fill="white"/>
</clipPath>
</defs>
</svg>
