<svg width="18" height="18" viewBox="0 0 18 18" fill="none" xmlns="http://www.w3.org/2000/svg">
<path d="M6.1875 2.25C5.73995 2.25 5.31072 2.42779 4.99426 2.74426C4.67779 3.06072 4.5 3.48995 4.5 3.9375V4.5H3.375C2.77826 4.5 2.20597 4.73705 1.78401 5.15901C1.36205 5.58097 1.125 6.15326 1.125 6.75V11.8125C1.125 12.2601 1.30279 12.6893 1.61926 13.0057C1.93572 13.3222 2.36495 13.5 2.8125 13.5H4.5V14.0625C4.5 14.5101 4.67779 14.9393 4.99426 15.2557C5.31072 15.5722 5.73995 15.75 6.1875 15.75H11.925C12.3726 15.75 12.8018 15.5722 13.1182 15.2557C13.4347 14.9393 13.6125 14.5101 13.6125 14.0625V13.5H15.1875C15.6351 13.5 16.0643 13.3222 16.3807 13.0057C16.6972 12.6893 16.875 12.2601 16.875 11.8125V6.75C16.875 6.15326 16.6379 5.58097 16.216 5.15901C15.794 4.73705 15.2217 4.5 14.625 4.5H13.5V3.9375C13.5 3.48995 13.3222 3.06072 13.0057 2.74426C12.6893 2.42779 12.2601 2.25 11.8125 2.25H6.1875ZM12.375 4.5H5.625V3.9375C5.625 3.78832 5.68426 3.64524 5.78975 3.53975C5.89524 3.43426 6.03832 3.375 6.1875 3.375H11.8125C11.9617 3.375 12.1048 3.43426 12.2102 3.53975C12.3157 3.64524 12.375 3.78832 12.375 3.9375V4.5ZM6.1875 11.25H11.925C12.0742 11.25 12.2173 11.3093 12.3227 11.4148C12.4282 11.5202 12.4875 11.6633 12.4875 11.8125V14.0625C12.4875 14.2117 12.4282 14.3548 12.3227 14.4602C12.2173 14.5657 12.0742 14.625 11.925 14.625H6.1875C6.03832 14.625 5.89524 14.5657 5.78975 14.4602C5.68426 14.3548 5.625 14.2117 5.625 14.0625V11.8125C5.625 11.6633 5.68426 11.5202 5.78975 11.4148C5.89524 11.3093 6.03832 11.25 6.1875 11.25Z" fill="#1C1E53"/>
</svg>
