<svg width="48" height="48" viewBox="0 0 48 48" fill="none" xmlns="http://www.w3.org/2000/svg">
<path d="M23.6842 0.31579C10.845 0.31579 0 11.1608 0 24C0 36.8392 10.845 47.6842 23.6842 47.6842C36.5234 47.6842 47.3684 36.8392 47.3684 24C47.3684 11.1608 36.5234 0.31579 23.6842 0.31579ZM23.6842 12.1579C27.7745 12.1579 30.7895 15.1705 30.7895 19.2632C30.7895 23.3558 27.7745 26.3684 23.6842 26.3684C19.5963 26.3684 16.5789 23.3558 16.5789 19.2632C16.5789 15.1705 19.5963 12.1579 23.6842 12.1579ZM11.5911 35.3021C13.7155 32.1758 17.2587 30.0916 21.3158 30.0916H26.0526C30.1121 30.0916 33.6529 32.1758 35.7774 35.3021C32.7505 38.5421 28.4566 40.5789 23.6842 40.5789C18.9118 40.5789 14.6179 38.5421 11.5911 35.3021Z" fill="white"/>
</svg>
