<svg width="48" height="48" viewBox="0 0 48 48" fill="none" xmlns="http://www.w3.org/2000/svg">
<circle cx="23.7894" cy="24" r="23.6842" fill="#F5DE19"/>
<path d="M24 13.5C18.2016 13.5 13.5 18.2016 13.5 24C13.5 29.7984 18.2016 34.5 24 34.5C29.7984 34.5 34.5 29.7984 34.5 24C34.5 18.2016 29.7984 13.5 24 13.5ZM24 32.7188C19.1859 32.7188 15.2812 28.8141 15.2812 24C15.2812 19.1859 19.1859 15.2812 24 15.2812C28.8141 15.2812 32.7188 19.1859 32.7188 24C32.7188 28.8141 28.8141 32.7188 24 32.7188ZM25.118 23.4562L24.5227 23.318V20.1703C25.4133 20.2922 25.9641 20.85 26.0578 21.5344C26.0695 21.6281 26.1492 21.6961 26.243 21.6961H27.2953C27.4055 21.6961 27.4922 21.6 27.4828 21.4898C27.3398 20.0297 26.1375 19.0922 24.532 18.9305V18.1641C24.532 18.0609 24.4477 17.9766 24.3445 17.9766H23.6859C23.5828 17.9766 23.4984 18.0609 23.4984 18.1641V18.9375C21.8391 19.0992 20.5406 20.0156 20.5406 21.7266C20.5406 23.3109 21.7078 24.075 22.9336 24.368L23.5125 24.5156V27.8602C22.4766 27.7219 21.8953 27.1688 21.7758 26.4234C21.7617 26.3344 21.682 26.2687 21.5906 26.2687H20.5078C20.3977 26.2687 20.3109 26.3625 20.3203 26.4727C20.4258 27.7617 21.4031 28.9477 23.4891 29.1V29.8359C23.4891 29.9391 23.5734 30.0234 23.6766 30.0234H24.3422C24.4453 30.0234 24.5297 29.9391 24.5297 29.8336L24.525 29.0906C26.3602 28.9289 27.6727 27.9469 27.6727 26.1844C27.6703 24.5578 26.6367 23.8312 25.118 23.4562ZM23.5102 23.0766C23.3789 23.0391 23.2688 23.0039 23.1586 22.9594C22.3664 22.6734 21.9984 22.2117 21.9984 21.6164C21.9984 20.7656 22.643 20.2805 23.5102 20.1703V23.0766ZM24.5227 27.8672V24.7336C24.5953 24.7547 24.6609 24.7711 24.7289 24.7852C25.8375 25.1227 26.2102 25.5914 26.2102 26.3109C26.2102 27.2273 25.5211 27.7781 24.5227 27.8672Z" fill="#1C1E53"/>
</svg>
