<svg width="48" height="48" viewBox="0 0 48 48" fill="none" xmlns="http://www.w3.org/2000/svg">
<circle cx="23.6842" cy="24" r="23.6842" fill="#F5DE19"/>
<path d="M27.6315 24H29.6052V27.9474H27.6315V24Z" fill="#1C1E53"/>
<path d="M31.5789 19.0658V17.0921C31.5789 16.0036 30.6937 15.1184 29.6052 15.1184H16.7763C15.144 15.1184 13.8157 16.4467 13.8157 18.0789V29.9211C13.8157 32.0931 15.5861 32.8816 16.7763 32.8816H31.5789C32.6674 32.8816 33.5526 31.9964 33.5526 30.9079V21.0395C33.5526 19.951 32.6674 19.0658 31.5789 19.0658ZM16.7763 17.0921H29.6052V19.0658H16.7763C16.5222 19.0544 16.2823 18.9455 16.1065 18.7617C15.9307 18.5778 15.8326 18.3333 15.8326 18.0789C15.8326 17.8246 15.9307 17.5801 16.1065 17.3962C16.2823 17.2124 16.5222 17.1035 16.7763 17.0921ZM31.5789 30.9079H16.7881C16.3322 30.8961 15.7894 30.7155 15.7894 29.9211V20.8569C16.0993 20.9684 16.4279 21.0395 16.7763 21.0395H31.5789V30.9079Z" fill="#1C1E53"/>
</svg>
