<svg width="49" height="48" viewBox="0 0 49 48" fill="none" xmlns="http://www.w3.org/2000/svg">
<circle cx="24.421" cy="24" r="23.6842" fill="#F5DE19"/>
<path d="M31 34H17C16.4696 34 15.9609 33.7893 15.5858 33.4142C15.2107 33.0391 15 32.5304 15 32V18C15 17.4696 15.2107 16.9609 15.5858 16.5858C15.9609 16.2107 16.4696 16 17 16H19V14H21V16H27V14H29V16H31C31.5304 16 32.0391 16.2107 32.4142 16.5858C32.7893 16.9609 33 17.4696 33 18V32C33 32.5304 32.7893 33.0391 32.4142 33.4142C32.0391 33.7893 31.5304 34 31 34ZM17 22V32H31V22H17ZM17 18V20H31V18H17ZM23 30.414L19.293 26.707L20.707 25.293L23 27.586L27.293 23.293L28.707 24.707L23 30.413V30.414Z" fill="#1C1E53"/>
</svg>
